MemphisRevivalLite.ufo
<glyph name="two" format="2">
  <advance width="629"/>
  <unicode hex="0032"/>
  <outline>
    <contour>
      <point x="167" y="564"/>
      <point x="166" y="563"/>
      <point x="167" y="564" type="curve"/>
    </contour>
    <contour>
      <point x="292" y="696" type="curve" smooth="yes"/>
      <point x="415" y="696"/>
      <point x="472" y="645"/>
      <point x="472" y="560" type="curve" smooth="yes"/>
      <point x="472" y="462"/>
      <point x="416" y="383"/>
      <point x="320" y="305" type="curve" smooth="yes"/>
      <point x="220" y="224"/>
      <point x="145" y="168"/>
      <point x="88" y="23" type="curve"/>
      <point x="94" y="0" type="line"/>
      <point x="581" y="0" type="line"/>
      <point x="581" y="186" type="line"/>
      <point x="528" y="186" type="line"/>
      <point x="528" y="48" type="line"/>
      <point x="157" y="48" type="line"/>
      <point x="209" y="154"/>
      <point x="263" y="198"/>
      <point x="348" y="266" type="curve" smooth="yes"/>
      <point x="453" y="348"/>
      <point x="528" y="446"/>
      <point x="528" y="565" type="curve" smooth="yes"/>
      <point x="528" y="674"/>
      <point x="448" y="749"/>
      <point x="291" y="749" type="curve" smooth="yes"/>
      <point x="196" y="749"/>
      <point x="121" y="670"/>
      <point x="110" y="598" type="curve" smooth="yes"/>
      <point x="108" y="588"/>
      <point x="108" y="579"/>
      <point x="110" y="571" type="curve"/>
      <point x="167" y="564" type="line"/>
      <point x="166" y="574"/>
      <point x="167" y="582"/>
      <point x="168" y="593" type="curve" smooth="yes"/>
      <point x="178" y="646"/>
      <point x="239" y="696"/>
    </contour>
  </outline>
</glyph>
<glyph name="four" format="2">
  <advance width="557"/>
  <unicode hex="0034"/>
  <outline>
    <contour>
      <point x="509" y="0" type="line"/>
      <point x="263" y="0" type="line"/>
      <point x="263" y="49" type="line"/>
      <point x="360" y="49" type="line"/>
      <point x="360" y="202" type="line"/>
      <point x="48" y="202" type="line"/>
      <point x="48" y="249" type="line"/>
      <point x="359" y="750" type="line"/>
      <point x="416" y="750" type="line"/>
      <point x="416" y="251" type="line"/>
      <point x="507" y="251" type="line"/>
      <point x="507" y="202" type="line"/>
      <point x="416" y="202" type="line"/>
      <point x="416" y="49" type="line"/>
      <point x="509" y="49" type="line"/>
      <point x="509" y="0" type="line"/>
    </contour>
    <contour>
      <point x="358" y="651" type="line"/>
      <point x="110" y="251" type="line"/>
      <point x="360" y="251" type="line"/>
      <point x="360" y="651" type="line"/>
      <point x="358" y="651" type="line"/>
    </contour>
  </outline>
</glyph>
<glyph name="semicolon" format="2">
  <advance width="198"/>
  <unicode hex="003B"/>
  <outline>
    <contour>
      <point x="5" y="-108" type="line"/>
      <point x="71" y="104" type="line"/>
      <point x="127" y="104" type="line"/>
      <point x="61" y="-108" type="line"/>
      <point x="5" y="-108" type="line"/>
    </contour>
    <contour>
      <point x="45" y="252" type="line"/>
      <point x="45" y="273"/>
      <point x="77" y="305"/>
      <point x="99" y="305" type="qcurve"/>
      <point x="121" y="305"/>
      <point x="153" y="273"/>
      <point x="153" y="251" type="qcurve"/>
      <point x="153" y="229"/>
      <point x="121" y="198"/>
      <point x="99" y="198" type="qcurve"/>
      <point x="77" y="198"/>
      <point x="45" y="229"/>
      <point x="45" y="251" type="qcurve"/>
    </contour>
  </outline>
</glyph>
<glyph name="D" format="2">
  <advance width="729"/>
  <unicode hex="0044"/>
  <outline>
    <contour>
      <point x="14" y="0" type="line"/>
      <point x="14" y="50" type="line"/>
      <point x="102" y="50" type="line"/>
      <point x="102" y="700" type="line"/>
      <point x="14" y="700" type="line"/>
      <point x="14" y="750" type="line"/>
      <point x="246" y="750" type="line"/>
      <point x="248" y="749"/>
      <point x="254" y="749"/>
      <point x="257" y="749" type="qcurve"/>
      <point x="336" y="749"/>
      <point x="480" y="730"/>
      <point x="550" y="674" type="qcurve"/>
      <point x="558" y="667"/>
      <point x="576" y="651"/>
      <point x="584" y="643" type="qcurve"/>
      <point x="636" y="591"/>
      <point x="692" y="455"/>
      <point x="692" y="383" type="qcurve"/>
      <point x="692" y="300"/>
      <point x="636" y="160"/>
      <point x="586" y="109" type="qcurve"/>
      <point x="536" y="58"/>
      <point x="397" y="0"/>
      <point x="314" y="0" type="qcurve"/>
      <point x="14" y="0" type="line"/>
    </contour>
    <contour>
      <point x="158" y="700" type="line"/>
      <point x="158" y="50" type="line"/>
      <point x="339" y="50" type="line"/>
      <point x="453" y="50"/>
      <point x="636" y="236"/>
      <point x="636" y="383" type="qcurve"/>
      <point x="636" y="520"/>
      <point x="460" y="695"/>
      <point x="328" y="699" type="qcurve"/>
      <point x="158" y="700" type="line"/>
    </contour>
  </outline>
</glyph>
<glyph name="L" format="2">
  <advance width="548"/>
  <unicode hex="004C"/>
  <outline>
    <contour>
      <point x="245" y="50" type="line"/>
      <point x="170" y="50" type="line"/>
      <point x="170" y="700" type="line"/>
      <point x="245" y="700" type="line"/>
      <point x="245" y="750" type="line"/>
      <point x="43" y="750" type="line"/>
      <point x="43" y="700" type="line"/>
      <point x="118" y="700" type="line"/>
      <point x="118" y="50" type="line"/>
      <point x="245" y="0" type="line"/>
    </contour>
    <contour>
      <point x="53" y="749" type="move"/>
      <point x="53" y="699" type="line"/>
    </contour>
    <contour>
      <point x="58" y="749" type="line"/>
      <point x="58" y="697" type="line"/>
    </contour>
    <contour>
      <point x="43" y="50" type="line"/>
      <point x="43" y="0" type="line"/>
      <point x="325" y="0" type="line"/>
      <point x="325" y="50" type="line"/>
      <point x="170" y="50" type="line"/>
      <point x="170" y="700" type="line"/>
      <point x="245" y="700" type="line"/>
      <point x="245" y="750" type="line"/>
      <point x="43" y="750" type="line"/>
      <point x="43" y="700" type="line"/>
      <point x="118" y="700" type="line"/>
      <point x="118" y="50" type="line"/>
    </contour>
    <contour>
      <point x="320" y="0" type="line"/>
      <point x="505" y="0" type="line"/>
      <point x="505" y="152" type="line"/>
      <point x="455" y="152" type="line"/>
      <point x="455" y="52" type="line"/>
      <point x="320" y="52" type="line"/>
    </contour>
    <contour>
      <point x="235" y="699" type="move"/>
      <point x="235" y="749" type="line"/>
    </contour>
    <contour>
      <point x="230" y="749" type="line"/>
      <point x="230" y="697" type="line"/>
    </contour>
  </outline>
</glyph>
<glyph name="R" format="2">
  <advance width="642"/>
  <unicode hex="0052"/>
  <image fileName="R_.png" xScale="3.211625284596118" xyScale="-0.11215242625724973" yxScale="0.11215242625724964" yScale="3.2116252845961153" xOffset="-108.34510651796101" yOffset="-161.56217483502473"/>
  <outline>
    <contour>
      <point x="24" y="750" type="line"/>
      <point x="24" y="698" type="line"/>
      <point x="111" y="698" type="line"/>
      <point x="111" y="49" type="line"/>
      <point x="25" y="49" type="line"/>
      <point x="25" y="0" type="line"/>
      <point x="168" y="0" type="line"/>
      <point x="168" y="750" type="line"/>
    </contour>
    <contour>
      <point x="168" y="750" type="curve"/>
      <point x="168" y="700" type="line"/>
      <point x="267" y="700" type="line"/>
      <point x="267" y="700"/>
      <point x="481" y="724"/>
      <point x="488" y="565" type="curve" smooth="yes"/>
      <point x="495" y="406"/>
      <point x="266" y="424"/>
      <point x="266" y="424" type="curve"/>
      <point x="168" y="424" type="line"/>
      <point x="168" y="375" type="line"/>
      <point x="312" y="375" type="line"/>
      <point x="312" y="375"/>
      <point x="386" y="387"/>
      <point x="428" y="403" type="curve" smooth="yes"/>
      <point x="454" y="413"/>
      <point x="546" y="458"/>
      <point x="544" y="565" type="curve" smooth="yes"/>
      <point x="542" y="688"/>
      <point x="483" y="740"/>
      <point x="263" y="750" type="curve" smooth="yes"/>
      <point x="263" y="750"/>
      <point x="168" y="748"/>
    </contour>
    <contour>
      <point x="168" y="422" type="move"/>
    </contour>
    <contour>
      <point x="255" y="750" type="line"/>
      <point x="111" y="750" type="line"/>
      <point x="111" y="0" type="line"/>
      <point x="254" y="0" type="line"/>
      <point x="254" y="49" type="line"/>
      <point x="168" y="49" type="line"/>
      <point x="168" y="700" type="line"/>
      <point x="255" y="700" type="line"/>
    </contour>
    <contour>
      <point x="168" y="422" type="curve"/>
      <point x="168" y="372" type="line"/>
      <point x="267" y="372" type="line"/>
      <point x="267" y="372"/>
      <point x="464" y="401"/>
      <point x="476" y="247" type="curve" smooth="yes"/>
      <point x="476" y="247"/>
      <point x="476" y="58"/>
      <point x="476" y="58" type="curve"/>
      <point x="476" y="0" type="line"/>
      <point x="618" y="0" type="line"/>
      <point x="618" y="57" type="line"/>
      <point x="618" y="57"/>
      <point x="535" y="57"/>
      <point x="535" y="57" type="curve" smooth="yes"/>
      <point x="537" y="61"/>
      <point x="535" y="233"/>
      <point x="535" y="234" type="curve" smooth="yes"/>
      <point x="535" y="349"/>
      <point x="483" y="412"/>
      <point x="263" y="422" type="curve" smooth="yes"/>
      <point x="263" y="422"/>
      <point x="168" y="420"/>
    </contour>
    <contour>
      <point x="168" y="372" type="move"/>
      <point x="255" y="372" type="line"/>
      <point x="255" y="422" type="line"/>
    </contour>
  </outline>
</glyph>
<glyph name="T" format="2">
  <advance width="740"/>
  <unicode hex="0054"/>
  <outline>
    <contour>
      <point x="264" y="700" type="line"/>
      <point x="339" y="700" type="line"/>
      <point x="339" y="50" type="line"/>
      <point x="264" y="50" type="line"/>
      <point x="264" y="0" type="line"/>
      <point x="466" y="0" type="line"/>
      <point x="466" y="50" type="line"/>
      <point x="391" y="50" type="line"/>
      <point x="391" y="700" type="line"/>
      <point x="546" y="700" type="line"/>
      <point x="546" y="750" type="line"/>
      <point x="264" y="750" type="line"/>
    </contour>
    <contour>
      <point x="541" y="750" type="line"/>
      <point x="541" y="698" type="line"/>
      <point x="666" y="698" type="line"/>
      <point x="666" y="598" type="line"/>
      <point x="716" y="598" type="line"/>
      <point x="716" y="750" type="line"/>
    </contour>
    <contour>
      <point x="456" y="1" type="move"/>
      <point x="456" y="51" type="line"/>
    </contour>
    <contour>
      <point x="451" y="1" type="line"/>
      <point x="451" y="53" type="line"/>
    </contour>
    <contour>
      <point x="466" y="700" type="line"/>
      <point x="466" y="750" type="line"/>
      <point x="184" y="750" type="line"/>
      <point x="184" y="700" type="line"/>
      <point x="339" y="700" type="line"/>
      <point x="339" y="50" type="line"/>
      <point x="264" y="50" type="line"/>
      <point x="264" y="0" type="line"/>
      <point x="466" y="0" type="line"/>
      <point x="466" y="50" type="line"/>
      <point x="391" y="50" type="line"/>
      <point x="391" y="700" type="line"/>
    </contour>
    <contour>
      <point x="189" y="750" type="line"/>
      <point x="24" y="750" type="line"/>
      <point x="24" y="598" type="line"/>
      <point x="74" y="598" type="line"/>
      <point x="74" y="698" type="line"/>
      <point x="189" y="698" type="line"/>
    </contour>
    <contour>
      <point x="274" y="51" type="move"/>
      <point x="274" y="1" type="line"/>
    </contour>
    <contour>
      <point x="279" y="1" type="line"/>
      <point x="279" y="53" type="line"/>
    </contour>
  </outline>
</glyph>
<glyph name="Y" format="2">
  <advance width="714"/>
  <unicode hex="0059"/>
  <outline>
    <contour>
      <point x="14" y="750" type="line"/>
      <point x="257" y="750" type="line"/>
      <point x="257" y="700" type="line"/>
      <point x="162" y="700" type="line"/>
      <point x="351" y="380" type="line"/>
      <point x="354" y="380" type="line"/>
      <point x="552" y="700" type="line"/>
      <point x="458" y="700" type="line"/>
      <point x="458" y="750" type="line"/>
      <point x="700" y="750" type="line"/>
      <point x="700" y="700" type="line"/>
      <point x="612" y="700" type="line"/>
      <point x="381" y="326" type="line"/>
      <point x="381" y="50" type="line"/>
      <point x="469" y="50" type="line"/>
      <point x="469" y="0" type="line"/>
      <point x="236" y="0" type="line"/>
      <point x="236" y="50" type="line"/>
      <point x="324" y="50" type="line"/>
      <point x="324" y="326" type="line"/>
      <point x="102" y="700" type="line"/>
      <point x="14" y="700" type="line"/>
      <point x="14" y="750" type="line"/>
    </contour>
  </outline>
</glyph>
<glyph name="Z" format="2">
  <advance width="537"/>
  <unicode hex="005A"/>
  <outline>
    <contour>
      <point x="71" y="700" type="line"/>
      <point x="71" y="557" type="line"/>
      <point x="15" y="557" type="line"/>
      <point x="15" y="750" type="line"/>
      <point x="523" y="750" type="line"/>
      <point x="523" y="700" type="line"/>
      <point x="82" y="50" type="line"/>
      <point x="462" y="50" type="line"/>
      <point x="462" y="199" type="line"/>
      <point x="518" y="199" type="line"/>
      <point x="518" y="0" type="line"/>
      <point x="14" y="0" type="line"/>
      <point x="14" y="50" type="line"/>
      <point x="454" y="700" type="line"/>
      <point x="71" y="700" type="line"/>
    </contour>
  </outline>
</glyph>
<glyph name="b" format="2">
  <advance width="604"/>
  <unicode hex="0062"/>
  <outline>
    <contour>
      <point x="27" y="750" type="line"/>
      <point x="27" y="700" type="line"/>
      <point x="100" y="700" type="line"/>
      <point x="100" y="50" type="line"/>
      <point x="26" y="50" type="line"/>
      <point x="26" y="0" type="line"/>
      <point x="152" y="0" type="line"/>
      <point x="152" y="50" type="line"/>
      <point x="152" y="50"/>
      <point x="150" y="746"/>
      <point x="150" y="750" type="curve"/>
    </contour>
    <contour>
      <point x="110" y="242" type="curve"/>
      <point x="110" y="66"/>
      <point x="203" y="-3"/>
      <point x="343" y="-3" type="curve"/>
      <point x="481" y="-3"/>
      <point x="576" y="66"/>
      <point x="578" y="242" type="curve"/>
      <point x="578" y="399"/>
      <point x="479" y="480"/>
      <point x="344" y="480" type="curve"/>
      <point x="215" y="480"/>
      <point x="111" y="394"/>
    </contour>
    <contour>
      <point x="343" y="49" type="curve" smooth="yes"/>
      <point x="247" y="47"/>
      <point x="163" y="95"/>
      <point x="158" y="242" type="curve"/>
      <point x="158" y="376"/>
      <point x="251" y="426"/>
      <point x="343" y="426" type="curve"/>
      <point x="424" y="426"/>
      <point x="525" y="376"/>
      <point x="525" y="242" type="curve"/>
      <point x="525" y="103"/>
      <point x="443" y="51"/>
    </contour>
  </outline>
</glyph>
<glyph name="c" format="2">
  <advance width="505"/>
  <unicode hex="0063"/>
  <outline>
    <contour>
      <point x="481" y="321"/>
      <point x="481" y="321"/>
      <point x="481" y="321" type="curve"/>
      <point x="481" y="477" type="line"/>
      <point x="430" y="477" type="line"/>
      <point x="430" y="411" type="line"/>
      <point x="387" y="456"/>
      <point x="326" y="480"/>
      <point x="258" y="480" type="curve"/>
      <point x="123" y="480"/>
      <point x="24" y="399"/>
      <point x="24" y="242" type="curve"/>
      <point x="26" y="66"/>
      <point x="121" y="-3"/>
      <point x="259" y="-3" type="curve"/>
      <point x="442" y="-3"/>
      <point x="479" y="114"/>
      <point x="479" y="114" type="curve"/>
      <point x="429" y="134" type="line"/>
      <point x="429" y="134"/>
      <point x="401" y="49"/>
      <point x="259" y="49" type="curve" smooth="yes"/>
      <point x="159" y="49"/>
      <point x="77" y="103"/>
      <point x="77" y="242" type="curve"/>
      <point x="77" y="376"/>
      <point x="178" y="426"/>
      <point x="259" y="426" type="curve"/>
      <point x="330" y="426"/>
      <point x="401" y="397"/>
      <point x="430" y="322" type="curve"/>
      <point x="430" y="321"/>
      <point x="480" y="322"/>
      <point x="481" y="321" type="curve" smooth="yes"/>
    </contour>
  </outline>
</glyph>
<glyph name="g" format="2">
  <advance width="599"/>
  <unicode hex="0067"/>
  <outline>
    <contour>
      <point x="452" y="427" type="line"/>
      <point x="452" y="432"/>
      <point x="450" y="50"/>
      <point x="450" y="50" type="curve"/>
      <point x="450" y="14" type="line"/>
      <point x="450" y="0" type="line"/>
      <point x="500" y="-1" type="line"/>
      <point x="500" y="15" type="line"/>
      <point x="502" y="427" type="line"/>
    </contour>
    <contour>
      <point x="492" y="242" type="curve"/>
      <point x="491" y="394"/>
      <point x="387" y="480"/>
      <point x="258" y="480" type="curve"/>
      <point x="123" y="480"/>
      <point x="24" y="399"/>
      <point x="24" y="242" type="curve"/>
      <point x="26" y="66"/>
      <point x="121" y="-3"/>
      <point x="259" y="-3" type="curve"/>
      <point x="399" y="-3"/>
      <point x="492" y="66"/>
    </contour>
    <contour>
      <point x="259" y="49" type="curve" smooth="yes"/>
      <point x="159" y="51"/>
      <point x="77" y="103"/>
      <point x="77" y="242" type="curve"/>
      <point x="77" y="376"/>
      <point x="178" y="426"/>
      <point x="259" y="426" type="curve"/>
      <point x="351" y="426"/>
      <point x="444" y="376"/>
      <point x="444" y="242" type="curve"/>
      <point x="439" y="95"/>
      <point x="355" y="47"/>
    </contour>
    <contour>
      <point x="452" y="427" type="line"/>
    </contour>
    <contour>
      <point x="575" y="427" type="move"/>
      <point x="502" y="427" type="line"/>
    </contour>
    <contour>
      <point x="502" y="477" type="move"/>
      <point x="452" y="427" type="line"/>
      <point x="502" y="427" type="line"/>
    </contour>
    <contour>
      <point x="502" y="427" type="line"/>
      <point x="502" y="477" type="line"/>
    </contour>
    <contour>
      <point x="452" y="427" type="move"/>
    </contour>
    <contour>
      <point x="502" y="427" type="line"/>
    </contour>
    <contour>
      <point x="452" y="427" type="move"/>
    </contour>
    <contour>
      <point x="502" y="427" type="move"/>
      <point x="575" y="427" type="line"/>
      <point x="575" y="477" type="line"/>
      <point x="452" y="477" type="line"/>
    </contour>
    <contour>
      <point x="452" y="427" type="line"/>
      <point x="574" y="427" type="line"/>
      <point x="575" y="477" type="line"/>
      <point x="452" y="477" type="line"/>
    </contour>
    <contour>
      <point x="450" y="50" type="move"/>
      <point x="450" y="0" type="line"/>
    </contour>
    <contour>
      <point x="498" y="-1" type="move"/>
    </contour>
    <contour>
      <point x="259" y="-3" type="move"/>
    </contour>
    <contour>
      <point x="259" y="49" type="move"/>
    </contour>
    <contour>
      <point x="458" y="186" type="curve"/>
      <point x="458" y="191"/>
      <point x="458" y="186"/>
    </contour>
    <contour>
      <point x="458" y="186" type="line"/>
    </contour>
    <contour>
      <point x="458" y="186" type="move"/>
    </contour>
    <contour>
      <point x="458" y="186" type="move"/>
    </contour>
    <contour>
      <point x="458" y="186" type="move"/>
    </contour>
    <contour>
      <point x="458" y="236" type="move"/>
    </contour>
    <contour>
      <point x="458" y="186" type="line"/>
      <point x="458" y="236" type="line"/>
    </contour>
    <contour>
      <point x="265" y="-244" type="move"/>
    </contour>
    <contour>
      <point x="265" y="-192" type="move"/>
    </contour>
    <contour>
      <point x="83" y="0" type="line"/>
      <point x="86" y="5"/>
      <point x="36" y="4"/>
      <point x="31" y="0" type="curve"/>
    </contour>
    <contour>
      <point x="478" y="238"/>
      <point x="476" y="266"/>
      <point x="450" y="14" type="curve" smooth="yes"/>
      <point x="450" y="10"/>
      <point x="450" y="5"/>
      <point x="450" y="1" type="curve"/>
      <point x="445" y="-146"/>
      <point x="361" y="-194"/>
      <point x="265" y="-192" type="curve" smooth="yes"/>
      <point x="165" y="-190"/>
      <point x="84" y="-138"/>
      <point x="83" y="-1" type="curve" smooth="yes"/>
      <point x="83" y="-1"/>
      <point x="83" y="-1"/>
      <point x="83" y="0" type="curve"/>
      <point x="31" y="0" type="line"/>
      <point x="30" y="-1"/>
      <point x="30" y="-1"/>
      <point x="30" y="-1" type="curve" smooth="yes"/>
      <point x="33" y="-175"/>
      <point x="127" y="-244"/>
      <point x="265" y="-244" type="curve"/>
      <point x="405" y="-244"/>
      <point x="498" y="-175"/>
      <point x="498" y="1" type="curve"/>
      <point x="498" y="6"/>
      <point x="498" y="10"/>
      <point x="498" y="15" type="curve" smooth="yes"/>
    </contour>
  </outline>
</glyph>
<glyph name="j" format="2">
  <advance width="285"/>
  <unicode hex="006A"/>
  <outline>
    <contour>
      <point x="124" y="477" type="line"/>
      <point x="124" y="425" type="line"/>
      <point x="197" y="425" type="line"/>
      <point x="190" y="-93" type="line"/>
      <point x="245" y="-15" type="line"/>
      <point x="249" y="477" type="line"/>
      <point x="224" y="477"/>
      <point x="195" y="477"/>
      <point x="195" y="477" type="curve"/>
    </contour>
    <contour>
      <point x="246" y="425" type="move"/>
      <point x="248" y="477" type="line"/>
    </contour>
    <contour>
      <point x="195" y="749" type="move"/>
      <point x="248" y="749" type="line"/>
      <point x="248" y="625" type="line"/>
      <point x="194" y="625" type="line"/>
    </contour>
    <contour>
      <point x="16" y="-8" type="move"/>
    </contour>
    <contour>
      <point x="16" y="-8" type="move"/>
    </contour>
    <contour>
      <point x="10" y="-249" type="move"/>
    </contour>
    <contour>
      <point x="10" y="-197" type="move"/>
    </contour>
    <contour>
      <point x="192" y="-5" type="curve"/>
      <point x="244" y="-5" type="line"/>
      <point x="239" y="-1"/>
      <point x="189" y="0"/>
    </contour>
    <contour>
      <point x="10" y="-249" type="move"/>
      <point x="148" y="-249"/>
      <point x="242" y="-180"/>
      <point x="245" y="-6" type="curve" smooth="yes"/>
      <point x="245" y="-6"/>
      <point x="245" y="-6"/>
      <point x="244" y="-5" type="curve"/>
      <point x="192" y="-5" type="line"/>
      <point x="192" y="-6"/>
      <point x="192" y="-6"/>
      <point x="192" y="-6" type="curve" smooth="yes"/>
      <point x="191" y="-143"/>
      <point x="110" y="-195"/>
      <point x="10" y="-197" type="curve"/>
    </contour>
  </outline>
</glyph>
<glyph name="k" format="2">
  <advance width="560"/>
  <unicode hex="006B"/>
  <outline>
    <contour>
      <point x="45" y="749" type="line"/>
      <point x="45" y="697" type="line"/>
      <point x="118" y="697" type="line"/>
      <point x="118" y="50" type="line"/>
      <point x="44" y="50" type="line"/>
      <point x="44" y="0" type="line"/>
      <point x="255" y="0" type="line"/>
      <point x="255" y="50" type="line"/>
      <point x="170" y="50" type="line"/>
      <point x="168" y="225" type="line"/>
      <point x="168" y="225"/>
      <point x="375" y="50"/>
      <point x="375" y="50" type="curve"/>
      <point x="318" y="50" type="line"/>
      <point x="318" y="0" type="line"/>
      <point x="516" y="0" type="line"/>
      <point x="516" y="50" type="line"/>
      <point x="445" y="52" type="line"/>
      <point x="445" y="52"/>
      <point x="168" y="282"/>
      <point x="168" y="282" type="curve"/>
      <point x="168" y="749" type="line"/>
    </contour>
    <contour>
      <point x="166" y="215" type="curve"/>
      <point x="166" y="215"/>
      <point x="166" y="223"/>
      <point x="166" y="223" type="curve"/>
      <point x="443" y="426" type="line"/>
      <point x="514" y="428" type="line"/>
      <point x="514" y="478" type="line"/>
      <point x="316" y="478" type="line"/>
      <point x="316" y="428" type="line"/>
      <point x="373" y="428" type="line"/>
      <point x="167" y="281" type="line"/>
      <point x="167" y="281"/>
      <point x="166" y="215"/>
    </contour>
  </outline>
</glyph>
<glyph name="p" format="2">
  <advance width="604"/>
  <unicode hex="0070"/>
  <outline>
    <contour>
      <point x="111" y="235" type="curve"/>
      <point x="112" y="83"/>
      <point x="216" y="-3"/>
      <point x="345" y="-3" type="curve"/>
      <point x="480" y="-3"/>
      <point x="579" y="78"/>
      <point x="579" y="235" type="curve"/>
      <point x="577" y="411"/>
      <point x="482" y="480"/>
      <point x="344" y="480" type="curve"/>
      <point x="204" y="480"/>
      <point x="111" y="411"/>
    </contour>
    <contour>
      <point x="344" y="428" type="curve" smooth="yes"/>
      <point x="444" y="426"/>
      <point x="526" y="374"/>
      <point x="526" y="235" type="curve"/>
      <point x="526" y="101"/>
      <point x="425" y="51"/>
      <point x="344" y="51" type="curve"/>
      <point x="252" y="51"/>
      <point x="159" y="101"/>
      <point x="159" y="235" type="curve"/>
      <point x="164" y="382"/>
      <point x="248" y="430"/>
    </contour>
    <contour>
      <point x="28" y="-273" type="move"/>
      <point x="28" y="-223" type="line"/>
    </contour>
    <contour>
      <point x="151" y="-223" type="line"/>
      <point x="151" y="-223" type="line"/>
      <point x="151" y="-273" type="line"/>
      <point x="225" y="-273" type="line"/>
      <point x="225" y="-223" type="line"/>
      <point x="151" y="-223" type="line"/>
      <point x="153" y="427" type="line"/>
      <point x="153" y="477" type="line"/>
      <point x="27" y="477" type="line"/>
      <point x="27" y="427" type="line"/>
      <point x="101" y="427" type="line"/>
      <point x="101" y="-223" type="line"/>
      <point x="28" y="-223" type="line"/>
      <point x="28" y="-273" type="line"/>
      <point x="151" y="-273" type="line"/>
    </contour>
  </outline>
</glyph>
<glyph name="r" format="2">
  <advance width="616"/>
  <unicode hex="0072"/>
  <outline>
    <contour>
      <point x="45" y="477" type="line"/>
      <point x="45" y="425" type="line"/>
      <point x="118" y="425" type="line"/>
      <point x="118" y="50" type="line"/>
      <point x="44" y="50" type="line"/>
      <point x="44" y="0" type="line"/>
      <point x="255" y="0" type="line"/>
      <point x="255" y="50" type="line"/>
      <point x="170" y="50" type="line"/>
      <point x="170" y="301" type="line"/>
      <point x="170" y="301"/>
      <point x="246" y="456"/>
      <point x="378" y="420" type="curve" smooth="yes"/>
      <point x="441" y="403"/>
      <point x="445" y="332"/>
      <point x="445" y="332" type="curve"/>
      <point x="497" y="350" type="line"/>
      <point x="497" y="350"/>
      <point x="486" y="477"/>
      <point x="332" y="477" type="curve"/>
      <point x="220" y="477"/>
      <point x="168" y="383"/>
      <point x="168" y="383" type="curve"/>
      <point x="168" y="477" type="line"/>
    </contour>
  </outline>
</glyph>
<glyph name="s" format="2">
  <advance width="397"/>
  <unicode hex="0073"/>
  <outline>
    <contour>
      <point x="25" y="0" type="line"/>
      <point x="67" y="0" type="line"/>
      <point x="67" y="55" type="line"/>
      <point x="89" y="19"/>
      <point x="152" y="-10"/>
      <point x="208" y="-10" type="curve" smooth="yes"/>
      <point x="218" y="-10" type="line" smooth="yes"/>
      <point x="220" y="-10"/>
      <point x="221" y="-10"/>
      <point x="223" y="-10" type="curve"/>
      <point x="286" y="-11"/>
      <point x="373" y="26"/>
      <point x="373" y="121" type="curve" smooth="yes"/>
      <point x="373" y="133" type="line" smooth="yes"/>
      <point x="373" y="173"/>
      <point x="362" y="197"/>
      <point x="333" y="217" type="curve"/>
      <point x="323" y="223" type="line"/>
      <point x="311" y="232"/>
      <point x="296" y="239"/>
      <point x="277" y="246" type="curve"/>
      <point x="220" y="271"/>
      <point x="130" y="291"/>
      <point x="109" y="306" type="curve"/>
      <point x="89" y="323"/>
      <point x="74" y="342"/>
      <point x="71" y="359" type="curve"/>
      <point x="71" y="431"/>
      <point x="120" y="452"/>
      <point x="174" y="453" type="curve"/>
      <point x="175" y="453" type="line" smooth="yes"/>
      <point x="230" y="451"/>
      <point x="287" y="418"/>
      <point x="303" y="354" type="curve"/>
      <point x="303" y="351" type="line"/>
      <point x="304" y="351" type="line"/>
      <point x="304" y="350" type="line" smooth="yes"/>
      <point x="305" y="351" type="line"/>
      <point x="306" y="351" type="line"/>
      <point x="306" y="350" type="line" smooth="yes"/>
      <point x="307" y="351" type="line"/>
      <point x="314" y="351" type="line"/>
      <point x="314" y="350" type="line" smooth="yes"/>
      <point x="315" y="351" type="line"/>
      <point x="316" y="351" type="line"/>
      <point x="316" y="350" type="line" smooth="yes"/>
      <point x="317" y="351" type="line"/>
      <point x="345" y="351" type="line"/>
      <point x="345" y="487" type="line"/>
      <point x="303" y="487" type="line"/>
      <point x="303" y="448" type="line"/>
      <point x="281" y="474"/>
      <point x="242" y="495"/>
      <point x="185" y="496" type="curve" smooth="yes"/>
      <point x="175" y="496" type="line" smooth="yes"/>
      <point x="173" y="496"/>
      <point x="172" y="496"/>
      <point x="170" y="496" type="curve"/>
      <point x="107" y="497"/>
      <point x="24" y="469"/>
      <point x="24" y="374" type="curve" smooth="yes"/>
      <point x="24" y="362" type="line" smooth="yes"/>
      <point x="24" y="306"/>
      <point x="41" y="281"/>
      <point x="105" y="254" type="curve"/>
      <point x="107" y="254" type="line"/>
      <point x="125" y="246"/>
      <point x="149" y="238"/>
      <point x="178" y="229" type="curve" smooth="yes"/>
      <point x="191" y="225"/>
      <point x="199" y="222"/>
      <point x="205" y="221" type="curve"/>
      <point x="243" y="208"/>
      <point x="268" y="198"/>
      <point x="284" y="191" type="curve"/>
      <point x="315" y="174"/>
      <point x="325" y="153"/>
      <point x="326" y="131" type="curve"/>
      <point x="326" y="63"/>
      <point x="271" y="36"/>
      <point x="218" y="35" type="curve"/>
      <point x="162" y="37"/>
      <point x="91" y="59"/>
      <point x="67" y="163" type="curve" smooth="yes"/>
      <point x="67" y="168" type="line"/>
      <point x="25" y="168" type="line"/>
    </contour>
  </outline>
</glyph>
<glyph name="t" format="2">
  <advance width="353"/>
  <unicode hex="0074"/>
  <outline>
    <contour>
      <point x="117" y="154" type="curve"/>
      <point x="117" y="154"/>
      <point x="117" y="154"/>
    </contour>
    <contour>
      <point x="340" y="161" type="move"/>
    </contour>
    <contour>
      <point x="340" y="161" type="move"/>
    </contour>
    <contour>
      <point x="298" y="-1" type="move"/>
    </contour>
    <contour>
      <point x="298" y="45" type="move"/>
    </contour>
    <contour>
      <point x="118" y="164"/>
      <point x="123" y="168"/>
      <point x="118" y="164" type="curve"/>
    </contour>
    <contour>
      <point x="298" y="45" type="move"/>
      <point x="198" y="47"/>
      <point x="169" y="30"/>
      <point x="168" y="162" type="curve" smooth="yes"/>
      <point x="168" y="162"/>
      <point x="118" y="164"/>
      <point x="118" y="164" type="curve"/>
      <point x="117" y="163"/>
      <point x="117" y="163"/>
      <point x="117" y="163" type="curve"/>
      <point x="111" y="-18"/>
      <point x="160" y="-1"/>
      <point x="298" y="-1" type="curve"/>
    </contour>
    <contour>
      <point x="298" y="-1" type="line"/>
      <point x="218" y="-1" type="line"/>
    </contour>
    <contour>
      <point x="13" y="475" type="line"/>
      <point x="117" y="475" type="line"/>
      <point x="117" y="750" type="line"/>
      <point x="168" y="750" type="line"/>
      <point x="168" y="475" type="line"/>
      <point x="284" y="475" type="line"/>
      <point x="284" y="426" type="line"/>
      <point x="168" y="426" type="line"/>
      <point x="168" y="162" type="line"/>
      <point x="117" y="164" type="line"/>
      <point x="117" y="426" type="line"/>
      <point x="13" y="426" type="line"/>
      <point x="13" y="475" type="line"/>
    </contour>
  </outline>
</glyph>
<glyph name="u" format="2">
  <advance width="613"/>
  <unicode hex="0075"/>
  <outline>
    <contour>
      <point x="572" y="0" type="line"/>
      <point x="572" y="52" type="line"/>
      <point x="499" y="52" type="line"/>
      <point x="499" y="427" type="line"/>
      <point x="499" y="427" type="line"/>
      <point x="499" y="477" type="line"/>
      <point x="362" y="477" type="line"/>
      <point x="362" y="427" type="line"/>
      <point x="447" y="427" type="line"/>
      <point x="447" y="176" type="line"/>
      <point x="447" y="176"/>
      <point x="371" y="21"/>
      <point x="239" y="57" type="curve" smooth="yes"/>
      <point x="176" y="74"/>
      <point x="172" y="145"/>
      <point x="172" y="145" type="curve"/>
      <point x="172" y="427" type="line"/>
      <point x="172" y="427" type="line"/>
      <point x="172" y="477" type="line"/>
      <point x="41" y="477" type="line"/>
      <point x="41" y="427" type="line"/>
      <point x="120" y="427" type="line"/>
      <point x="120" y="127" type="line"/>
      <point x="120" y="127"/>
      <point x="131" y="0"/>
      <point x="285" y="0" type="curve"/>
      <point x="397" y="0"/>
      <point x="449" y="94"/>
      <point x="449" y="94" type="curve"/>
      <point x="449" y="0" type="line"/>
    </contour>
  </outline>
</glyph>
<glyph name="w" format="2">
  <advance width="833"/>
  <unicode hex="0077"/>
  <outline>
    <contour>
      <point x="404" y="390" type="line"/>
      <point x="284" y="0" type="line"/>
      <point x="243" y="0" type="line"/>
      <point x="81" y="428" type="line"/>
      <point x="-1" y="428" type="line"/>
      <point x="-1" y="475" type="line"/>
      <point x="219" y="475" type="line"/>
      <point x="219" y="428" type="line"/>
      <point x="130" y="428" type="line"/>
      <point x="262" y="77" type="line"/>
      <point x="264" y="77" type="line"/>
      <point x="369" y="428" type="line"/>
      <point x="283" y="428" type="line"/>
      <point x="283" y="475" type="line"/>
      <point x="527" y="475" type="line"/>
      <point x="527" y="428" type="line"/>
      <point x="441" y="428" type="line"/>
      <point x="545" y="77" type="line"/>
      <point x="547" y="77" type="line"/>
      <point x="682" y="428" type="line"/>
      <point x="593" y="428" type="line"/>
      <point x="593" y="475" type="line"/>
      <point x="811" y="475" type="line"/>
      <point x="811" y="428" type="line"/>
      <point x="729" y="428" type="line"/>
      <point x="566" y="0" type="line"/>
      <point x="525" y="0" type="line"/>
      <point x="406" y="390" type="line"/>
      <point x="404" y="390" type="line"/>
    </contour>
  </outline>
</glyph>
<glyph name="endash" format="2">
  <advance width="523"/>
  <unicode hex="2013"/>
  <outline>
    <contour>
      <point x="28" y="257" type="line"/>
      <point x="495" y="257" type="line"/>
      <point x="495" y="207" type="line"/>
      <point x="28" y="207" type="line"/>
      <point x="28" y="257" type="line"/>
    </contour>
  </outline>
</glyph>
